<svg xmlns="http://www.w3.org/2000/svg" version="1.1" xmlns:xlink="http://www.w3.org/1999/xlink" xmlns:svgjs="http://svgjs.com/svgjs" width="600.000000pt" height="384.000000pt"><svg version="1.0" xmlns="http://www.w3.org/2000/svg" width="600.000000pt" height="384.000000pt" viewBox="0 0 600.000000 384.000000" preserveAspectRatio="xMidYMid meet">

<g transform="translate(0.000000,384.000000) scale(0.100000,-0.100000)" fill="#000000" stroke="none">
<path d="M5229 2362 c-54 -44 -4 -142 65 -128 39 8 54 23 62 61 13 68 -71 112
-127 67z"></path>
<path d="M5520 2353 c-23 -30 -22 -76 3 -100 44 -45 127 -10 127 53 0 71 -86
103 -130 47z"></path>
<path d="M570 2360 c0 -6 8 -13 18 -16 54 -16 82 -38 82 -63 0 -14 -67 -207
-150 -428 -82 -221 -150 -407 -150 -413 0 -5 17 -10 38 -10 l37 0 56 158 56
157 177 0 178 0 24 -65 c14 -36 40 -107 60 -157 l36 -93 64 0 c35 0 64 1 64 3
0 1 -81 211 -179 467 l-178 465 -117 3 c-77 2 -116 -1 -116 -8z m252 -357 c41
-111 73 -205 70 -208 -10 -9 -312 -5 -312 5 0 23 154 420 160 413 4 -5 41 -99
82 -210z"></path>
<path d="M2690 2361 c0 -4 23 -14 51 -22 35 -9 59 -23 73 -42 20 -28 21 -40
24 -448 l3 -419 270 0 269 0 0 95 c0 85 -2 95 -18 95 -13 0 -22 -13 -31 -49
-21 -82 -30 -86 -202 -86 -108 0 -151 4 -161 13 -10 10 -14 64 -16 207 l-3
195 113 0 c141 0 176 -14 196 -77 8 -24 20 -43 28 -43 11 0 14 27 14 141 0
126 -2 140 -17 137 -9 -2 -20 -17 -25 -34 -15 -60 -36 -69 -180 -72 l-129 -4
3 172 c4 216 -8 203 183 198 162 -4 180 -11 197 -75 7 -32 15 -43 29 -43 17 0
19 8 19 85 l0 85 -345 0 c-190 0 -345 -4 -345 -9z"></path>
<path d="M5803 2300 c-41 -24 -53 -48 -53 -103 0 -54 26 -91 76 -107 71 -24
145 11 165 79 31 103 -92 190 -188 131z m111 -4 c94 -39 87 -168 -10 -195 -71
-20 -144 30 -144 99 0 36 30 81 63 95 41 18 50 18 91 1z"></path>
<path d="M5819 2261 c9 -6 12 -25 10 -65 -3 -48 -1 -56 13 -56 14 0 16 6 12
30 -9 42 23 42 38 -1 8 -22 16 -29 31 -27 11 2 22 9 25 16 2 7 -2 10 -10 7 -7
-3 -19 5 -27 16 -11 19 -11 23 3 31 23 13 20 45 -5 53 -11 4 -23 4 -26 1 -4
-3 -1 -6 5 -6 18 0 14 -40 -4 -47 -24 -9 -38 11 -25 36 11 19 9 21 -21 21 -22
0 -29 -3 -19 -9z"></path>
<path d="M1865 2077 c-4 -8 -5 -41 -3 -73 3 -55 4 -57 15 -33 19 43 51 59 115
59 72 0 104 -12 151 -58 38 -37 77 -133 77 -188 l0 -24 -210 0 -210 0 0 -87
c0 -105 19 -154 75 -200 50 -42 109 -57 198 -51 103 7 170 44 214 117 37 62
48 127 41 245 -9 138 -67 229 -177 280 -60 27 -277 37 -286 13z m359 -424 c-3
-119 -58 -183 -158 -183 -102 0 -152 50 -163 163 -9 103 -18 98 164 95 l158
-3 -1 -72z"></path>
<path d="M2430 2079 c-80 -13 -100 -18 -100 -28 0 -5 13 -11 30 -14 16 -4 39
-16 50 -27 19 -19 20 -32 20 -300 l0 -280 54 0 55 0 3 223 c3 201 5 226 24
262 26 50 74 77 132 73 l42 -3 0 52 c0 52 0 53 -30 53 -61 0 -114 -43 -149
-120 l-21 -45 0 83 0 82 -27 -1 c-16 -1 -53 -5 -83 -10z"></path>
<path d="M3515 2075 c-44 -8 -81 -14 -82 -14 -2 -1 -3 -5 -3 -10 0 -5 14 -11
32 -15 18 -3 42 -16 55 -28 23 -21 23 -22 23 -300 l0 -278 49 0 49 0 4 193 c3
182 4 195 29 247 61 131 165 194 236 145 36 -26 43 -77 43 -337 l0 -248 50 0
50 0 0 275 c0 307 -4 329 -62 365 -45 27 -144 28 -197 1 -42 -22 -100 -82
-128 -133 l-18 -33 -3 93 c-3 106 9 99 -127 77z"></path>
<path d="M4320 2081 c-123 -38 -175 -132 -174 -316 0 -102 19 -172 64 -234 59
-81 192 -128 327 -115 l73 6 0 65 c0 40 -4 62 -10 58 -5 -3 -10 -12 -10 -20 0
-45 -105 -59 -176 -24 -87 41 -161 165 -166 274 l-3 60 204 3 204 2 -6 56
c-13 125 -97 195 -231 193 -39 0 -82 -4 -96 -8z m165 -73 c32 -31 62 -108 47
-123 -3 -3 -69 -5 -148 -5 l-142 0 9 41 c19 84 61 118 147 119 46 0 57 -4 87
-32z"></path>
<path d="M4750 2074 c-41 -7 -76 -13 -77 -13 -2 -1 -3 -5 -3 -10 0 -5 16 -12
35 -15 19 -4 43 -18 55 -33 19 -24 20 -39 20 -299 l0 -274 49 0 49 0 4 218 c3
193 5 221 23 257 28 56 78 87 133 83 l42 -3 0 54 0 54 -40 -6 c-56 -7 -96 -40
-130 -105 l-29 -57 -1 83 0 82 -27 -1 c-16 -1 -62 -7 -103 -15z"></path>
<path d="M5210 2074 c-41 -7 -76 -13 -77 -13 -11 -3 0 -21 12 -21 9 0 29 -7
45 -15 49 -25 53 -62 48 -432 -4 -317 -5 -334 -24 -360 -45 -60 -136 -33 -150
44 -6 33 -7 33 -60 33 -50 0 -54 -2 -54 -24 0 -29 35 -82 73 -110 44 -33 168
-35 221 -4 48 28 74 77 86 160 5 35 10 219 10 411 l0 347 -27 -1 c-16 -1 -62
-7 -103 -15z"></path>
<path d="M5530 2079 c-80 -13 -100 -18 -100 -28 0 -5 13 -11 29 -14 16 -4 39
-16 50 -28 20 -22 21 -33 21 -301 l0 -278 50 0 50 0 0 330 0 330 -22 -1 c-13
-1 -48 -5 -78 -10z"></path>
<path d="M1220 2005 c0 -41 3 -75 8 -75 4 0 15 18 24 40 11 26 26 44 44 50 15
6 87 9 166 8 l139 -3 -190 -265 c-138 -191 -191 -273 -191 -292 l0 -28 255 0
255 0 0 75 c0 41 -4 75 -9 75 -5 0 -18 -17 -28 -37 -27 -57 -52 -64 -208 -61
l-136 3 190 267 c129 180 191 275 191 292 l0 26 -255 0 -255 0 0 -75z"></path>
</g>
</svg><style>@media (prefers-color-scheme: light) { :root { filter: none; } }
</style></svg>