<?xml version="1.0" standalone="no"?>
<!DOCTYPE svg PUBLIC "-//W3C//DTD SVG 20010904//EN"
 "http://www.w3.org/TR/2001/REC-SVG-20010904/DTD/svg10.dtd">
<svg version="1.0" xmlns="http://www.w3.org/2000/svg"
 width="178.000000pt" height="220.000000pt" viewBox="0 0 178.000000 220.000000"
 preserveAspectRatio="xMidYMid meet">

<g transform="translate(0.000000,220.000000) scale(0.100000,-0.100000)"
fill="#000000" stroke="none">
<path d="M260 1856 c-154 -43 -208 -133 -189 -313 8 -75 47 -195 109 -336 38
-87 72 -150 55 -102 -45 124 -56 161 -66 225 -35 227 64 374 276 411 94 16
278 5 429 -26 66 -13 124 -21 129 -18 6 3 7 2 4 -3 -3 -6 19 -15 49 -22 74
-18 332 -104 439 -147 133 -53 113 -35 -27 25 -361 155 -761 293 -804 276 -8
-3 -14 -2 -14 3 0 26 -315 48 -390 27z"/>
<path d="M670 1410 c0 -5 7 -10 15 -10 20 0 78 -29 87 -44 15 -22 7 -50 -71
-259 -44 -117 -116 -311 -161 -431 -44 -121 -83 -223 -85 -227 -3 -4 13 -9 35
-11 45 -4 31 -28 113 202 l45 125 188 3 c103 1 191 -1 196 -6 5 -5 35 -78 67
-163 l58 -154 66 -3 66 -3 -24 63 c-12 35 -73 194 -134 353 -98 252 -155 402
-205 535 l-14 35 -121 3 c-78 2 -121 -1 -121 -8z m191 -167 c58 -147 158 -427
154 -432 -11 -10 -334 -11 -340 -1 -5 8 142 420 162 453 7 13 13 8 24 -20z"/>
</g>
</svg>
