<?xml version="1.0" encoding="UTF-8"?>
<!DOCTYPE svg PUBLIC "-//W3C//DTD SVG 1.1//EN" "http://www.w3.org/Graphics/SVG/1.1/DTD/svg11.dtd">
<svg xmlns="http://www.w3.org/2000/svg" version="1.1" width="600px" height="384px" style="shape-rendering:geometricPrecision; text-rendering:geometricPrecision; image-rendering:optimizeQuality; fill-rule:evenodd; clip-rule:evenodd" xmlns:xlink="http://www.w3.org/1999/xlink">
<g><path style="opacity:0.918" fill="#1da6e0" d="M -0.5,138.5 C -0.5,132.5 -0.5,126.5 -0.5,120.5C 2.49479,112.015 8.49479,106.848 17.5,105C 28.8806,103.05 40.214,103.384 51.5,106C 93.8695,116.349 134.203,132.015 172.5,153C 171.5,153.667 170.5,153.667 169.5,153C 134.724,136.519 98.3905,124.853 60.5,118C 51.1206,117.184 41.7873,117.517 32.5,119C 18.9861,122.857 11.6528,131.857 10.5,146C 11.0127,152.95 12.1793,159.783 14,166.5C 17.5134,176.836 21.5134,186.836 26,196.5C 14.1407,178.455 5.30736,159.121 -0.5,138.5 Z"/></g>
<g><path style="opacity:0.924" fill="#0069a6" d="M 524.5,144.5 C 535.117,144.616 538.117,149.449 533.5,159C 523.412,162.573 518.912,159.073 520,148.5C 521.397,146.93 522.897,145.596 524.5,144.5 Z"/></g>
<g><path style="opacity:0.923" fill="#0068a5" d="M 553.5,144.5 C 562.658,143.491 566.492,147.491 565,156.5C 560.947,161.008 556.28,161.674 551,158.5C 547.715,153.167 548.548,148.5 553.5,144.5 Z"/></g>
<g><path style="opacity:0.922" fill="#0069a6" d="M 55.5,145.5 C 63.8599,145.169 72.1932,145.502 80.5,146.5C 92.3706,177.737 104.371,208.904 116.5,240C 111.467,240.829 106.467,240.662 101.5,239.5C 97.4292,229.618 93.7625,219.618 90.5,209.5C 78.8143,209.168 67.1477,209.501 55.5,210.5C 51.5862,220.323 48.2529,230.323 45.5,240.5C 42.1667,240.5 38.8333,240.5 35.5,240.5C 44.8305,213.344 54.6639,186.344 65,159.5C 65.902,152.644 62.7354,149.31 55.5,149.5C 55.5,148.167 55.5,146.833 55.5,145.5 Z M 72.5,163.5 C 73.1174,163.611 73.6174,163.944 74,164.5C 78.6417,177.428 83.4751,190.261 88.5,203C 78.5056,203.5 68.5056,203.666 58.5,203.5C 63.1667,190.167 67.8333,176.833 72.5,163.5 Z"/></g>
<g><path style="opacity:0.898" fill="#0068a5" d="M 268.5,145.5 C 291.833,145.5 315.167,145.5 338.5,145.5C 338.5,151.5 338.5,157.5 338.5,163.5C 336.5,163.5 334.5,163.5 332.5,163.5C 332.974,158.044 330.641,154.544 325.5,153C 316.119,152.194 306.785,152.36 297.5,153.5C 296.808,154.025 296.308,154.692 296,155.5C 295.5,166.495 295.333,177.495 295.5,188.5C 303.547,188.723 311.547,188.223 319.5,187C 323.421,184.665 325.421,181.165 325.5,176.5C 326.833,176.5 328.167,176.5 329.5,176.5C 329.5,186.5 329.5,196.5 329.5,206.5C 328.167,206.5 326.833,206.5 325.5,206.5C 325.443,202.495 324.11,198.995 321.5,196C 312.916,194.59 304.25,194.09 295.5,194.5C 295.333,206.838 295.5,219.171 296,231.5C 296.308,232.308 296.808,232.975 297.5,233.5C 306.785,234.64 316.119,234.806 325.5,234C 327.329,233.727 328.829,232.893 330,231.5C 331.605,228.352 332.605,225.019 333,221.5C 334.699,220.594 336.533,220.261 338.5,220.5C 338.5,227.167 338.5,233.833 338.5,240.5C 319.833,240.5 301.167,240.5 282.5,240.5C 282.667,213.165 282.5,185.831 282,158.5C 280.08,151.938 275.58,148.938 268.5,149.5C 268.5,148.167 268.5,146.833 268.5,145.5 Z"/></g>
<g><path style="opacity:0.719" fill="#0069a6" d="M 599.5,158.5 C 599.5,161.833 599.5,165.167 599.5,168.5C 592.685,177.495 584.852,178.495 576,171.5C 570.631,157.528 575.464,150.695 590.5,151C 594.3,152.642 597.3,155.142 599.5,158.5 Z M 583.5,153.5 C 590.762,152.957 595.429,156.124 597.5,163C 596.89,164.947 596.057,166.781 595,168.5C 594.935,166.117 594.102,165.45 592.5,166.5C 591.713,165.758 591.047,164.925 590.5,164C 594.476,161.284 594.476,158.617 590.5,156C 587.5,155.667 584.5,155.333 581.5,155C 582.416,154.722 583.082,154.222 583.5,153.5 Z M 578.5,156.5 C 579.15,156.804 579.817,157.137 580.5,157.5C 581.833,161.167 581.833,164.833 580.5,168.5C 579.094,169.668 577.928,169.335 577,167.5C 576.116,163.567 576.616,159.901 578.5,156.5 Z M 586.5,157.5 C 588.104,158.287 588.771,159.62 588.5,161.5C 587.5,161.5 586.5,161.5 585.5,161.5C 585.433,160.041 585.766,158.708 586.5,157.5 Z M 585.5,164.5 C 587.27,165.856 588.603,167.689 589.5,170C 590.5,170.333 591.5,170.667 592.5,171C 588.535,174.212 584.535,174.212 580.5,171C 582.9,170.814 585.234,170.314 587.5,169.5C 585.995,168.158 585.328,166.492 585.5,164.5 Z"/></g>
<g><path style="opacity:0.907" fill="#0068a5" d="M 188.5,173.5 C 224.099,171.607 238.599,188.274 232,223.5C 227.23,236.652 217.73,242.985 203.5,242.5C 190.688,242.689 182.522,236.689 179,224.5C 178.501,218.509 178.334,212.509 178.5,206.5C 192.5,206.5 206.5,206.5 220.5,206.5C 219.915,188.071 210.582,179.904 192.5,182C 189.735,183.097 188.069,185.097 187.5,188C 186.552,188.483 185.552,188.649 184.5,188.5C 184.5,183.833 184.5,179.167 184.5,174.5C 186.099,174.768 187.432,174.434 188.5,173.5 Z M 190.5,211.5 C 200.833,211.5 211.167,211.5 221.5,211.5C 223.068,220.293 220.734,227.793 214.5,234C 207.191,237.34 200.358,236.507 194,231.5C 190.885,225.216 189.718,218.549 190.5,211.5 Z"/></g>
<g><path style="opacity:0.946" fill="#0068a5" d="M 248.5,173.5 C 250.167,173.5 251.833,173.5 253.5,173.5C 253.334,178.179 253.501,182.845 254,187.5C 257.278,178.283 263.778,173.616 273.5,173.5C 273.666,177.846 273.499,182.179 273,186.5C 263.711,183.813 257.711,187.146 255,196.5C 253.606,211.122 253.106,225.789 253.5,240.5C 249.833,240.5 246.167,240.5 242.5,240.5C 242.667,222.83 242.5,205.164 242,187.5C 240.498,182.323 236.998,179.99 231.5,180.5C 231.5,179.167 231.5,177.833 231.5,176.5C 237.374,175.951 243.041,174.951 248.5,173.5 Z"/></g>
<g><path style="opacity:0.898" fill="#0068a6" d="M 359.5,173.5 C 361.167,173.5 362.833,173.5 364.5,173.5C 364.334,178.844 364.501,184.177 365,189.5C 373.576,173.641 385.91,169.641 402,177.5C 403.75,180.246 404.75,183.246 405,186.5C 405.5,204.497 405.667,222.497 405.5,240.5C 401.5,240.5 397.5,240.5 393.5,240.5C 393.667,222.83 393.5,205.164 393,187.5C 391.839,183.167 389.005,181.167 384.5,181.5C 377.924,182.233 373.091,185.566 370,191.5C 368.667,194.167 367.333,196.833 366,199.5C 364.573,213.107 364.073,226.774 364.5,240.5C 360.5,240.5 356.5,240.5 352.5,240.5C 352.667,221.83 352.5,203.164 352,184.5C 349.592,181.38 346.426,180.047 342.5,180.5C 342.5,179.167 342.5,177.833 342.5,176.5C 348.374,175.951 354.041,174.951 359.5,173.5 Z"/></g>
<g><path style="opacity:0.912" fill="#0068a5" d="M 434.5,173.5 C 455.17,170.845 465.503,179.845 465.5,200.5C 451.833,200.5 438.167,200.5 424.5,200.5C 424.307,212.097 428.307,221.93 436.5,230C 442.647,235.213 449.313,236.213 456.5,233C 457.861,231.416 458.528,229.582 458.5,227.5C 459.5,227.5 460.5,227.5 461.5,227.5C 461.666,232.179 461.499,236.845 461,241.5C 422.463,245.95 407.13,228.95 415,190.5C 418.294,181.033 424.794,175.366 434.5,173.5 Z M 436.5,179.5 C 446.355,179.688 451.688,184.688 452.5,194.5C 443.143,194.832 433.81,194.498 424.5,193.5C 425.73,186.328 429.73,181.662 436.5,179.5 Z"/></g>
<g><path style="opacity:0.89" fill="#0068a6" d="M 483.5,173.5 C 485.167,173.5 486.833,173.5 488.5,173.5C 488.334,177.846 488.501,182.179 489,186.5C 492.45,177.529 498.95,173.196 508.5,173.5C 508.666,177.846 508.499,182.179 508,186.5C 499.177,183.912 493.177,186.912 490,195.5C 488.566,210.442 488.066,225.442 488.5,240.5C 484.5,240.5 480.5,240.5 476.5,240.5C 476.667,222.164 476.5,203.83 476,185.5C 474.055,181.61 470.888,179.943 466.5,180.5C 466.5,179.167 466.5,177.833 466.5,176.5C 472.349,175.804 478.016,174.804 483.5,173.5 Z"/></g>
<g><path style="opacity:0.943" fill="#0069a5" d="M 529.5,173.5 C 530.833,173.5 532.167,173.5 533.5,173.5C 533.667,200.169 533.5,226.835 533,253.5C 532.045,260.265 528.545,265.099 522.5,268C 516.5,268.667 510.5,268.667 504.5,268C 497.595,265.244 493.929,260.077 493.5,252.5C 497.833,252.5 502.167,252.5 506.5,252.5C 506.202,258.868 509.202,262.535 515.5,263.5C 519.911,261.689 522.078,258.355 522,253.5C 522.667,231.167 522.667,208.833 522,186.5C 520.172,182.494 517.005,180.327 512.5,180C 511.663,178.989 511.33,177.822 511.5,176.5C 517.699,175.911 523.699,174.911 529.5,173.5 Z"/></g>
<g><path style="opacity:0.945" fill="#0068a6" d="M 558.5,173.5 C 560.167,173.5 561.833,173.5 563.5,173.5C 563.5,195.833 563.5,218.167 563.5,240.5C 559.833,240.5 556.167,240.5 552.5,240.5C 552.667,223.163 552.5,205.83 552,188.5C 550.982,182.655 547.482,179.989 541.5,180.5C 541.5,179.167 541.5,177.833 541.5,176.5C 547.386,176.02 553.052,175.02 558.5,173.5 Z"/></g>
<g><path style="opacity:0.906" fill="#0068a6" d="M 120.5,174.5 C 138.167,174.5 155.833,174.5 173.5,174.5C 173.663,176.857 173.497,179.19 173,181.5C 160.132,198.736 147.632,216.236 135.5,234C 144.541,234.765 153.541,234.431 162.5,233C 166.879,231.432 169.212,228.265 169.5,223.5C 170.833,223.5 172.167,223.5 173.5,223.5C 173.5,229.167 173.5,234.833 173.5,240.5C 155.833,240.5 138.167,240.5 120.5,240.5C 120.211,237.351 120.711,234.351 122,231.5C 134.167,214.667 146.333,197.833 158.5,181C 148.772,180.109 139.106,180.443 129.5,182C 126.143,184.212 124.476,187.378 124.5,191.5C 123.167,191.5 121.833,191.5 120.5,191.5C 120.5,185.833 120.5,180.167 120.5,174.5 Z"/></g>
</svg>
