<svg xmlns:dc="http://purl.org/dc/elements/1.1/" xmlns:cc="http://creativecommons.org/ns#" xmlns:rdf="http://www.w3.org/1999/02/22-rdf-syntax-ns#" xmlns:svg="http://www.w3.org/2000/svg" xmlns="http://www.w3.org/2000/svg" xmlns:sodipodi="http://sodipodi.sourceforge.net/DTD/sodipodi-0.dtd" xmlns:inkscape="http://www.inkscape.org/namespaces/inkscape" version="1.1" x="0px" y="0px" viewBox="0 0 100 125"><g transform="translate(0,-952.36218)"><path style="font-size:medium;font-style:normal;font-variant:normal;font-weight:normal;font-stretch:normal;text-indent:0;text-align:start;text-decoration:none;line-height:normal;letter-spacing:normal;word-spacing:normal;text-transform:none;direction:ltr;block-progression:tb;writing-mode:lr-tb;text-anchor:start;baseline-shift:baseline;opacity:1;color:#000000;fill:#000000;fill-opacity:1;stroke:none;stroke-width:6;marker:none;visibility:visible;display:inline;overflow:visible;enable-background:accumulate;font-family:Sans;-inkscape-font-specification:Sans" d="M 50 5 C 25.18272 5 5 25.1827 5 50 C 5 74.8173 25.18272 95 50 95 C 74.81728 95 95 74.8173 95 50 C 95 25.1827 74.81728 5 50 5 z M 50 11 C 71.57464 11 89 28.42534 89 50 C 89 71.5746 71.57464 89 50 89 C 28.42536 89 11 71.5746 11 50 C 11 28.42534 28.42536 11 50 11 z M 41.84375 18.40625 A 3.0003 3.0003 0 0 0 38.875 20.96875 L 34.46875 50.03125 A 3.0003 3.0003 0 0 0 37.4375 53.46875 L 42.25 53.46875 L 40.78125 82.625 A 3.0003 3.0003 0 0 0 46.40625 84.25 L 67.5625 47.09375 A 3.0003 3.0003 0 0 0 64.9375 42.59375 L 59.65625 42.59375 L 67.625 22.53125 A 3.0003 3.0003 0 0 0 64.8125 18.40625 L 41.84375 18.40625 z M 44.4375 24.40625 L 60.40625 24.40625 L 52.4375 44.5 A 3.0003 3.0003 0 0 0 55.21875 48.59375 L 59.8125 48.59375 L 47.40625 70.34375 L 48.40625 50.625 A 3.0003 3.0003 0 0 0 45.40625 47.46875 L 40.90625 47.46875 L 44.4375 24.40625 z M 29.65625 25.5 A 3.0003 3.0003 0 0 0 27.5625 26.34375 C 21.311362 32.27661 17.4375 40.71442 17.4375 50 C 17.4375 61.2903 23.185328 71.25435 31.9375 77.09375 A 3.0003 3.0003 0 1 0 35.28125 72.125 C 28.138484 67.3594 23.4375 59.2515 23.4375 50 C 23.4375 42.39124 26.612488 35.56503 31.71875 30.71875 A 3.0003 3.0003 0 0 0 29.65625 25.5 z M 73.9375 29.75 A 3.0003 3.0003 0 0 0 71.625 34.53125 C 74.744068 38.88757 76.5625 44.22155 76.5625 50 C 76.5625 62.4284 68.067576 72.816 56.59375 75.75 A 3.0014645 3.0014645 0 1 0 58.09375 81.5625 C 72.17914 77.9607 82.5625 65.1674 82.5625 50 C 82.5625 42.94811 80.320842 36.36771 76.5 31.03125 A 3.0003 3.0003 0 0 0 73.9375 29.75 z " transform="translate(0,952.36218)"/></g><text x="0" y="115" fill="#000000" font-size="5px" font-weight="bold" font-family="'Helvetica Neue', Helvetica, Arial-Unicode, Arial, Sans-serif">Created by counloucon</text><text x="0" y="120" fill="#000000" font-size="5px" font-weight="bold" font-family="'Helvetica Neue', Helvetica, Arial-Unicode, Arial, Sans-serif">from the Noun Project</text></svg>