<svg xmlns="http://www.w3.org/2000/svg" xmlns:xlink="http://www.w3.org/1999/xlink" xmlns:sketch="http://www.bohemiancoding.com/sketch/ns" viewBox="0 0 56 75" version="1.1" x="0px" y="0px"><title>explosion</title><desc>Created with Sketch.</desc><g stroke="none" stroke-width="1" fill="none" fill-rule="evenodd" sketch:type="MSPage"><g sketch:type="MSArtboardGroup" transform="translate(-2.000000, 0.000000)" fill="#000000"><path d="M58,26 C58,30.411 54.411,34 50,34 C46.453,34 43.377,31.722 42.345,28.331 C42.185,27.803 42.482,27.244 43.011,27.084 C43.541,26.921 44.098,27.221 44.259,27.749 C45.032,30.292 47.34,32 50,32 C53.309,32 56,29.309 56,26 C56,23.151 53.976,20.678 51.188,20.119 C50.856,20.052 50.582,19.824 50.456,19.511 C50.33,19.198 50.37,18.843 50.563,18.566 C51.503,17.218 52,15.639 52,14 C52,9.589 48.411,6 44,6 C41.312,6 38.819,7.338 37.33,9.58 C37.025,10.04 36.405,10.164 35.943,9.859 C35.483,9.554 35.358,8.933 35.664,8.473 C37.525,5.672 40.642,4 44,4 C49.514,4 54,8.486 54,14 C54,15.594 53.624,17.143 52.904,18.545 C55.924,19.723 58,22.669 58,26 L58,26 Z M17.679,28.254 C17.834,27.724 17.53,27.169 17,27.013 C16.471,26.856 15.915,27.162 15.759,27.691 C15.016,30.228 12.647,32 10,32 C6.691,32 4,29.309 4,26 C4,23.151 6.024,20.678 8.812,20.119 C9.144,20.052 9.418,19.824 9.544,19.511 C9.67,19.198 9.63,18.843 9.436,18.566 C8.497,17.218 8,15.639 8,14 C8,9.589 11.589,6 16,6 C18.671,6 21.155,7.325 22.647,9.545 C22.954,10.002 23.575,10.125 24.034,9.817 C24.492,9.509 24.614,8.888 24.307,8.43 C22.443,5.656 19.338,4 16,4 C10.486,4 6,8.486 6,14 C6,15.594 6.376,17.143 7.096,18.545 C4.076,19.723 2,22.669 2,26 C2,30.411 5.589,34 10,34 C13.529,34 16.688,31.637 17.679,28.254 L17.679,28.254 Z M23.112,4.184 C25.144,2.755 27.526,2 30,2 C32.474,2 34.856,2.755 36.888,4.184 C37.062,4.307 37.264,4.366 37.462,4.366 C37.776,4.366 38.086,4.218 38.281,3.941 C38.599,3.489 38.49,2.865 38.038,2.548 C35.668,0.881 32.888,0 30,0 C27.112,0 24.332,0.881 21.962,2.548 C21.51,2.865 21.401,3.489 21.719,3.941 C22.038,4.392 22.66,4.502 23.112,4.184 L23.112,4.184 Z M29.111,28.542 C27.731,31.224 25.006,32.889 22,32.889 C20.75,32.889 19.553,32.606 18.442,32.049 C17.949,31.802 17.348,32.001 17.101,32.495 C16.853,32.989 17.052,33.589 17.546,33.837 C18.938,34.535 20.435,34.889 22,34.889 C25.191,34.889 28.13,33.387 30,30.882 C31.87,33.387 34.809,34.889 38,34.889 C39.562,34.889 41.059,34.536 42.448,33.84 C42.941,33.593 43.142,32.992 42.894,32.499 C42.646,32.005 42.049,31.803 41.552,32.052 C40.443,32.607 39.248,32.889 38,32.889 C34.994,32.889 32.269,31.224 30.889,28.542 C30.547,27.877 29.453,27.877 29.111,28.542 L29.111,28.542 Z M30,34 C29.447,34 29,34.448 29,35 L29,57 C29,57.552 29.447,58 30,58 C30.553,58 31,57.552 31,57 L31,35 C31,34.448 30.553,34 30,34 L30,34 Z M23.836,36.014 C23.291,36.104 22.923,36.62 23.014,37.164 C23.023,37.224 24,43.171 24,50 C24,53.905 22.695,55.685 21.74,56.464 C20.884,54.087 18.086,53 16,53 C14.193,53 12.485,53.838 11.354,55.236 C10.924,55.08 10.467,55 10,55 C7.794,55 6,56.794 6,59 C6,59.552 6.447,60 7,60 C7.553,60 8,59.552 8,59 C8,57.897 8.897,57 10,57 C10.402,57 10.79,57.119 11.121,57.344 C11.351,57.5 11.637,57.555 11.906,57.492 C12.178,57.43 12.411,57.258 12.55,57.018 C13.278,55.754 14.568,55 16,55 C17.253,55 20,55.755 20,58 C20,58.308 20.142,58.599 20.385,58.788 C20.628,58.978 20.944,59.044 21.242,58.97 C21.436,58.921 26,57.692 26,50 C26,42.998 25.027,37.084 24.986,36.835 C24.896,36.291 24.381,35.925 23.836,36.014 L23.836,36.014 Z M50,55 C49.533,55 49.076,55.08 48.645,55.236 C47.515,53.838 45.807,53 44,53 C41.913,53 39.112,54.088 38.258,56.469 C37.304,55.694 36,53.918 36,50 C36,43.171 36.977,37.224 36.986,37.164 C37.077,36.62 36.709,36.104 36.164,36.014 C35.618,35.924 35.104,36.291 35.014,36.835 C34.973,37.084 34,42.998 34,50 C34,57.692 38.563,58.921 38.758,58.97 C39.057,59.045 39.373,58.979 39.615,58.788 C39.858,58.599 40,58.308 40,58 C40,55.755 42.747,55 44,55 C45.432,55 46.722,55.754 47.45,57.018 C47.589,57.258 47.822,57.43 48.094,57.492 C48.364,57.555 48.649,57.5 48.879,57.344 C49.21,57.119 49.598,57 50,57 C51.103,57 52,57.897 52,59 C52,59.552 52.447,60 53,60 C53.553,60 54,59.552 54,59 C54,56.794 52.206,55 50,55 L50,55 Z" sketch:type="MSShapeGroup"/></g></g><text x="0" y="75" fill="#000000" font-size="5px" font-weight="bold" font-family="'Helvetica Neue', Helvetica, Arial-Unicode, Arial, Sans-serif">Created by Pixel Bazaar</text><text x="0" y="80" fill="#000000" font-size="5px" font-weight="bold" font-family="'Helvetica Neue', Helvetica, Arial-Unicode, Arial, Sans-serif">from the Noun Project</text></svg>