<svg xmlns="http://www.w3.org/2000/svg" xmlns:xlink="http://www.w3.org/1999/xlink" version="1.1" x="0px" y="0px" viewBox="0 0 64 80" style="enable-background:new 0 0 64 64;" xml:space="preserve"><g><g><g><g><path d="M45.63,62.84H5.45C2.45,62.84,0,60.39,0,57.39V6.61c0-3.01,2.45-5.45,5.45-5.45h31.76c0.28,0,0.54,0.12,0.72,0.33      l12.9,14.5c0.16,0.18,0.25,0.41,0.25,0.64v10.42c0,0.54-0.43,0.97-0.97,0.97c-0.54,0-0.97-0.43-0.97-0.97V17L36.78,3.1H5.45      c-1.94,0-3.52,1.58-3.52,3.52v50.77c0,1.94,1.58,3.52,3.52,3.52h40.17c1.94,0,3.52-1.58,3.52-3.52v-3.62      c0-0.54,0.43-0.97,0.97-0.97c0.54,0,0.97,0.43,0.97,0.97v3.62C51.08,60.39,48.63,62.84,45.63,62.84z"/></g><g><path d="M50.11,17.6h-12.9c-0.54,0-0.97-0.43-0.97-0.97V2.13c0-0.54,0.43-0.97,0.97-0.97c0.54,0,0.97,0.43,0.97,0.97v13.53      h11.93c0.54,0,0.97,0.43,0.97,0.97C51.08,17.17,50.65,17.6,50.11,17.6z"/></g></g><g><g><path d="M37.19,53.86c-0.25,0-0.5-0.1-0.69-0.28c-0.24-0.24-0.33-0.58-0.26-0.91l2.07-8.89c0.04-0.18,0.13-0.34,0.26-0.47      l16.49-16.49c0.96-0.96,2.63-0.96,3.58,0l4.61,4.61c0.99,0.99,0.99,2.59,0,3.58L46.77,51.51c-0.13,0.13-0.29,0.22-0.47,0.26      l-8.89,2.07C37.34,53.86,37.26,53.86,37.19,53.86z M40.15,44.49l-1.66,7.1l7.1-1.66l16.3-16.3c0.23-0.23,0.23-0.61,0-0.84      l-4.61-4.61c-0.22-0.22-0.62-0.22-0.84,0L40.15,44.49z M46.08,50.82L46.08,50.82L46.08,50.82z"/></g><g><path d="M46.08,51.79c-0.25,0-0.5-0.09-0.69-0.28l-6.82-6.82c-0.38-0.38-0.38-0.99,0-1.37c0.38-0.38,0.99-0.38,1.37,0l6.82,6.82      c0.38,0.38,0.38,0.99,0,1.37C46.58,51.7,46.33,51.79,46.08,51.79z"/></g><g><path d="M44.84,43.64c-0.25,0-0.5-0.09-0.69-0.28c-0.38-0.38-0.38-0.99,0-1.37L54.93,31.2c0.38-0.38,0.99-0.38,1.37,0      c0.38,0.38,0.38,0.99,0,1.37L45.52,43.35C45.33,43.54,45.09,43.64,44.84,43.64z"/></g></g><g><g><path d="M40.09,24.68h-29.1c-0.54,0-0.97-0.43-0.97-0.97c0-0.54,0.43-0.97,0.97-0.97h29.1c0.54,0,0.97,0.43,0.97,0.97      C41.06,24.25,40.63,24.68,40.09,24.68z"/></g><g><path d="M40.09,36.53h-29.1c-0.54,0-0.97-0.43-0.97-0.97c0-0.54,0.43-0.97,0.97-0.97h29.1c0.54,0,0.97,0.43,0.97,0.97      C41.06,36.1,40.63,36.53,40.09,36.53z"/></g></g></g><g><g><path d="M19.21,54.72c-0.39,0-0.75-0.23-0.9-0.61l-1.44-3.62l-1.49,3.63c-0.2,0.5-0.77,0.73-1.27,0.53     c-0.5-0.2-0.73-0.77-0.53-1.27l2.4-5.85c0.15-0.37,0.51-0.61,0.9-0.6c0.4,0,0.75,0.24,0.9,0.61l2.33,5.85     c0.2,0.5-0.05,1.06-0.54,1.26C19.45,54.69,19.33,54.72,19.21,54.72z"/></g><g><path d="M26.49,54.49c-0.26,0-0.5-0.1-0.69-0.28l-1.97-1.97h-9.35c-0.54,0-0.97-0.43-0.97-0.97c0-0.54,0.43-0.97,0.97-0.97h9.75     c0.26,0,0.5,0.1,0.69,0.28l1.32,1.32l1.71-3.24c0.15-0.29,0.44-0.48,0.76-0.51c0.33-0.04,0.64,0.1,0.85,0.35l2.78,3.41     c0.34,0.42,0.28,1.03-0.14,1.36c-0.42,0.34-1.03,0.27-1.36-0.14l-1.85-2.27l-1.64,3.11c-0.14,0.27-0.41,0.46-0.71,0.51     C26.58,54.49,26.53,54.49,26.49,54.49z"/></g></g></g><text x="0" y="79" fill="#000000" font-size="5px" font-weight="bold" font-family="'Helvetica Neue', Helvetica, Arial-Unicode, Arial, Sans-serif">Created by The Deserve</text><text x="0" y="84" fill="#000000" font-size="5px" font-weight="bold" font-family="'Helvetica Neue', Helvetica, Arial-Unicode, Arial, Sans-serif">from the Noun Project</text></svg>