<svg xmlns="http://www.w3.org/2000/svg" data-name="Layer 1" viewBox="0 0 95 118.75" x="0px" y="0px"><defs><style>.cls-1{fill-rule:evenodd;}</style></defs><title>a</title><path class="cls-1" d="M26.918,9.045,33.9,21.127a1.405,1.405,0,0,1-.515,1.921,1.425,1.425,0,0,1-.7.188,1.4,1.4,0,0,1-1.219-.7l-6.98-12.081a1.407,1.407,0,1,1,2.436-1.407ZM20,65.007,10.443,70.52a1.406,1.406,0,0,1-1.406-2.436L18.59,62.57A1.407,1.407,0,1,1,20,65.007Zm5.7,21.664a1.42,1.42,0,0,1-.7-.189,1.4,1.4,0,0,1-.514-1.921L30,75a1.407,1.407,0,1,1,2.437,1.406l-5.516,9.557a1.4,1.4,0,0,1-1.221.7Zm20.4,4.42V80.065a1.406,1.406,0,1,1,2.812,0V91.091a1.406,1.406,0,1,1-2.812,0Zm24.424-6.53a1.406,1.406,0,1,1-2.436,1.406L62.567,76.41A1.406,1.406,0,1,1,65,75l5.516,9.557ZM75,65.007a1.407,1.407,0,1,1,1.407-2.437l9.552,5.514a1.407,1.407,0,0,1-1.407,2.436L75,65.007ZM70,8.53a1.406,1.406,0,0,1,.515,1.922l-6.98,12.081a1.4,1.4,0,0,1-1.218.7,1.429,1.429,0,0,1-.7-.188,1.407,1.407,0,0,1-.513-1.921L68.082,9.045A1.4,1.4,0,0,1,70,8.53ZM47.5,2.5a1.406,1.406,0,0,1,1.407,1.407V17.861a1.406,1.406,0,1,1-2.812,0V3.909A1.4,1.4,0,0,1,47.5,2.5ZM5.332,46.37a.28.28,0,0,0,.161.364L17,51.142a.294.294,0,0,0,.214-.013.279.279,0,0,0,.15-.15l8.994-23.523a.279.279,0,0,0-.162-.364l-11.5-4.408a.267.267,0,0,0-.1-.012.276.276,0,0,0-.266.175l-9,23.523Zm27.728-12.6a1.41,1.41,0,0,0,.557.126c1.543.05,2.956.1,4.245.138L35.58,35.846a3.97,3.97,0,0,0-1.527,3.114l-.124,8.766c0,.038,0,.075,0,.126a3.938,3.938,0,0,0,5.443,3.34c1.6-.314,4.978-1.7,6.072-7.7a3.134,3.134,0,0,1,.493-.955,1.177,1.177,0,0,1,.879-.49,1.154,1.154,0,0,1,.947.327L64.8,58.426a1.487,1.487,0,0,1-.782,2.663,1.528,1.528,0,0,1-1.079-.352l-.917-.779v.013a1.106,1.106,0,0,0-.133-.126l-7.063-5.99A1.407,1.407,0,0,0,53.005,56l7.063,5.991a1.481,1.481,0,0,1-1.916,2.26l-.857-.728H57.29s0-.013-.006-.013l-6.81-5.777a1.407,1.407,0,0,0-1.819,2.148l6.81,5.777a1.481,1.481,0,0,1-1.916,2.26l-.391-.339h0l-6.266-5.312a1.407,1.407,0,0,0-1.818,2.147l6,5.087.262.226a1.486,1.486,0,0,1,.172,2.085,1.437,1.437,0,0,1-1.008.514,1.452,1.452,0,0,1-1.08-.339l-4.548-3.855a4.311,4.311,0,0,0,.091-1.206,4.254,4.254,0,0,0-1.446-2.939,4.135,4.135,0,0,0-1.689-.916,4.294,4.294,0,0,0-1.275-4.459,4.218,4.218,0,0,0-1.949-.979,4.285,4.285,0,0,0-1.393-3.969l-.927,1.055.927-1.055a4.283,4.283,0,0,0-4.471-.741,4.288,4.288,0,0,0-7.2-1.23l-.96,1.092a18.063,18.063,0,0,1-1.758-2.851,1.345,1.345,0,0,0-.585-.59l-1.025-.565,6.675-17.457,5.175,2.449Zm13.409-2.989-9.138,7.259a1.168,1.168,0,0,0-.467.955l-.123,8.69a1.124,1.124,0,0,0,.554.842,1.113,1.113,0,0,0,1.051.037,1.414,1.414,0,0,1,.389-.113c1.978-.326,3.384-2.285,3.96-5.538a1.243,1.243,0,0,1,.041-.176,6.024,6.024,0,0,1,.962-1.9,4.046,4.046,0,0,1,6-.515L65.958,55.663A19.782,19.782,0,0,0,70.3,51.355a8.4,8.4,0,0,1,3.438-2.712l-6.572-17.18c-.923.313-2.013.69-3.258,1.13a1.347,1.347,0,0,1-.86.025A66.383,66.383,0,0,0,48.53,30.144a2.851,2.851,0,0,0-2.061.64ZM68.652,27.23a.315.315,0,0,0-.008.226l8.995,23.523a.3.3,0,0,0,.364.163l11.5-4.408a.28.28,0,0,0,.163-.364L80.674,22.847a.309.309,0,0,0-.365-.163l-11.5,4.408a.269.269,0,0,0-.156.138ZM40.548,69.6l1.246-1.419a1.478,1.478,0,1,0-2.224-1.947l-1.247,1.407a1.5,1.5,0,0,0,.134,2.1,1.481,1.481,0,0,0,2.091-.138Zm-6.426-3.679a1.489,1.489,0,0,0,2.089-.126l1.246-1.419h0l1.374-1.57a1.478,1.478,0,1,0-2.224-1.947l-2.622,2.977a1.475,1.475,0,0,0,.136,2.085Zm-4.338-3.806a1.482,1.482,0,0,0,2.091-.138L34.5,59h0l.994-1.131a1.492,1.492,0,0,0-.136-2.1,1.508,1.508,0,0,0-.976-.364,1.457,1.457,0,0,0-1.114.5l-3.616,4.107a1.493,1.493,0,0,0,.135,2.1ZM25.447,58.3a1.481,1.481,0,0,0,2.092-.138l2.337-2.65a1.5,1.5,0,0,0-.136-2.1,1.508,1.508,0,0,0-1.071-.364,1.552,1.552,0,0,0-1.019.5l-2.337,2.663a1.477,1.477,0,0,0,.134,2.084ZM4.489,49.358l11.5,4.409a3.06,3.06,0,0,0,1.106.2,2.96,2.96,0,0,0,1.261-.277,3.035,3.035,0,0,0,1.63-1.708l.207-.552c.107.063.212.113.321.176A19.906,19.906,0,0,0,22.737,55a4.288,4.288,0,0,0,3.686,6.481H26.5A4.285,4.285,0,0,0,30.76,65.3h.076a4.284,4.284,0,0,0,4.254,3.8h.08a4.293,4.293,0,0,0,7.489,2.361l.766-.867L47.6,74.137a4.305,4.305,0,0,0,2.768,1.017,3.367,3.367,0,0,0,.36-.025,4.268,4.268,0,0,0,3.933-4.056,4.273,4.273,0,0,0,4.091-3.68,3.2,3.2,0,0,0,.353.025,4.3,4.3,0,0,0,4.231-3.554,4,4,0,0,0,.55.038c.12,0,.239-.013.361-.013a4.255,4.255,0,0,0,3.512-6.053,22.49,22.49,0,0,0,4.775-4.785c.009,0,.018-.013.027-.025a5.561,5.561,0,0,1,2.18-1.758l.27.715a3.106,3.106,0,0,0,4,1.784l11.5-4.409A3.093,3.093,0,0,0,92.3,45.365L83.3,21.843a3.1,3.1,0,0,0-4-1.784l-11.5,4.4a3.1,3.1,0,0,0-1.785,4.006l.142.364c-.8.276-1.727.6-2.764.967A68.815,68.815,0,0,0,48.72,27.343a5.627,5.627,0,0,0-4,1.244l-3.451,2.737Q38.31,31.231,34,31.1l-5.1-2.4.091-.239A3.11,3.11,0,0,0,27.2,24.455l-11.5-4.4a3.1,3.1,0,0,0-4,1.784L2.7,45.365A3.094,3.094,0,0,0,4.489,49.358Z"/><text x="0" y="110" fill="#000000" font-size="5px" font-weight="bold" font-family="'Helvetica Neue', Helvetica, Arial-Unicode, Arial, Sans-serif">Created by lakonicon</text><text x="0" y="115" fill="#000000" font-size="5px" font-weight="bold" font-family="'Helvetica Neue', Helvetica, Arial-Unicode, Arial, Sans-serif">from the Noun Project</text></svg>