<svg xmlns="http://www.w3.org/2000/svg" xmlns:xlink="http://www.w3.org/1999/xlink" version="1.1" x="0px" y="0px" viewBox="0 0 300 375" style="enable-background:new 0 0 300 300;" xml:space="preserve"><g><path d="M157.5,74.6c5.2,0,9.5,4.3,9.5,9.5v0c0,5.2-4.3,9.5-9.5,9.5h-6.6c0,33,0,66,0,98.9l42.7,54.3c5.5,7,1.1,17.5-7.7,18.1   c-0.3,0-0.6,0-0.9,0H83.4c-0.3,0-0.6,0-0.9,0c-8.8-0.6-13.2-11.1-7.7-18.1l42.7-54.3c0-33,0-66,0-98.9h-6.6c-5.2,0-9.5-4.3-9.5-9.5   v0c0-5.2,4.3-9.5,9.5-9.5H157.5 M157.5,58.6h-46.7c-14.1,0-25.5,11.4-25.5,25.5c0,10.8,6.7,20,16.1,23.7V187l-39.2,50   c-6.3,8-7.6,18.7-3.4,28c4.1,9.1,12.7,15.2,22.6,15.9c0.7,0,1.3,0.1,2,0.1H185c0.6,0,1.3,0,2-0.1c9.9-0.7,18.6-6.8,22.6-15.9   c4.1-9.3,2.8-20.1-3.4-28l-39.2-50v-79.2c9.4-3.7,16.1-13,16.1-23.7C183,70,171.6,58.6,157.5,58.6L157.5,58.6z"/><g><path d="M179.9,244.4L147,202.6c-10.8-16.1-16.3-12.1-25.7,0l-32.8,41.8c-4.2,5.4-0.9,13.5,5.9,13.9c0.2,0,0.4,0,0.7,0h78.2    c0.2,0,0.4,0,0.7,0C180.7,257.9,184.1,249.8,179.9,244.4z M146.7,245c-4.8,0-8.7-3.9-8.7-8.7c0-4.8,3.9-8.7,8.7-8.7    s8.7,3.9,8.7,8.7C155.4,241.1,151.5,245,146.7,245z"/></g><g><circle cx="156.4" cy="31.7" r="12.7"/></g><g><circle cx="219.8" cy="64.4" r="23.8"/></g></g><text x="0" y="315" fill="#000000" font-size="5px" font-weight="bold" font-family="'Helvetica Neue', Helvetica, Arial-Unicode, Arial, Sans-serif">Created by Angelo Troiano</text><text x="0" y="320" fill="#000000" font-size="5px" font-weight="bold" font-family="'Helvetica Neue', Helvetica, Arial-Unicode, Arial, Sans-serif">from the Noun Project</text></svg>