<svg xmlns="http://www.w3.org/2000/svg" xmlns:xlink="http://www.w3.org/1999/xlink" version="1.1" x="0px" y="0px" viewBox="0 0 100 125" enable-background="new 0 0 100 100" xml:space="preserve"><polygon points="43.688,53.294 53.6,60.318 69.61,41.306 75.929,47.414 88.232,26.677 75.979,44.037 69.128,37.897 53.105,54.416   43.826,47.414 5,78.947 19.768,78.947 "/><polygon points="87.078,22.305 89.932,24.267 90.133,24.387 76.029,48.159 69.645,41.989 53.68,60.947 43.751,53.91 20.405,78.947   33.656,78.947 44.183,59.262 54.14,67.341 69.699,45.823 76.122,50.854 91.217,25.089 93.965,26.98 95,17.238 "/><polygon points="166.559,362.324 230.33,407.514 333.333,285.197 373.992,324.492 453.143,191.077 374.314,302.764 330.232,263.262   227.145,369.541 167.45,324.495 -82.347,527.364 12.664,527.364 "/><polygon fill="none" stroke="#000000" stroke-miterlimit="10" points="445.717,162.95 464.082,175.573 465.375,176.34   374.635,329.286 333.559,289.587 230.847,411.557 166.964,366.288 16.766,527.364 102.016,527.364 169.746,400.72 233.803,452.699   333.905,314.255 375.232,346.627 472.35,180.861 490.029,193.029 496.687,130.349 "/><polygon fill="none" stroke="#000000" stroke-miterlimit="10" points="1637.717,254.041 1656.082,266.664 1657.375,267.431   1566.635,420.377 1525.559,380.678 1422.847,502.648 1358.964,457.379 1208.766,618.455 1294.016,618.455 1361.746,491.811   1425.803,543.79 1525.905,405.345 1567.232,437.718 1664.35,271.952 1682.028,284.12 1688.687,221.44 "/><polygon points="975.281,392.687 1039.052,437.878 1142.056,315.56 1182.714,354.855 1261.866,221.44 1183.036,333.127   1138.954,293.626 1035.867,399.905 976.173,354.859 726.376,557.727 821.386,557.727 "/><text x="0" y="115" fill="#000000" font-size="5px" font-weight="bold" font-family="'Helvetica Neue', Helvetica, Arial-Unicode, Arial, Sans-serif">Created by iamacca</text><text x="0" y="120" fill="#000000" font-size="5px" font-weight="bold" font-family="'Helvetica Neue', Helvetica, Arial-Unicode, Arial, Sans-serif">from the Noun Project</text></svg>