<svg xmlns="http://www.w3.org/2000/svg" data-name="Layer 1" viewBox="0 0 32 40" x="0px" y="0px"><polygon points="24.31 10.56 24.31 15.23 23.24 15.23 23.24 11.13 13.19 4.12 3.15 11.13 3.15 24.21 7.17 24.21 7.17 13.24 19.22 13.24 19.22 16.34 18.14 16.34 18.14 14.32 8.24 14.32 8.24 16.9 16.56 16.9 16.56 17.98 8.24 17.98 8.24 20.56 15.98 20.56 15.98 21.63 8.24 21.63 8.24 24.21 15.83 24.21 15.83 25.29 2.07 25.29 2.07 10.56 13.19 2.81 24.31 10.56"/><path d="M23.779,16.89c-3.4,0-6.16,2.76-6.16,6.15s2.76,6.15,6.16,6.15,6.15-2.76,6.15-6.15-2.76-6.15-6.15-6.15Zm2.49,6.69h-1.96v1.95h-1.07v-1.95h-1.96v-1.08h1.96v-1.95h1.07v1.95h1.96v1.08Z"/><text x="0" y="47" fill="#000000" font-size="5px" font-weight="bold" font-family="'Helvetica Neue', Helvetica, Arial-Unicode, Arial, Sans-serif">Created by IGraphics</text><text x="0" y="52" fill="#000000" font-size="5px" font-weight="bold" font-family="'Helvetica Neue', Helvetica, Arial-Unicode, Arial, Sans-serif">from the Noun Project</text></svg>